<mxfile host="Electron" agent="Mozilla/5.0 (Windows NT 10.0; Win64; x64) AppleWebKit/537.36 (KHTML, like Gecko) draw.io/25.0.2 Chrome/128.0.6613.186 Electron/32.2.5 Safari/537.36" version="25.0.2" pages="4">
  <diagram name="main" id="k9XnCRZqyMejL9A2p0II">
    <mxGraphModel dx="1290" dy="717" grid="1" gridSize="10" guides="1" tooltips="1" connect="1" arrows="1" fold="1" page="1" pageScale="1" pageWidth="827" pageHeight="1169" math="0" shadow="0">
      <root>
        <mxCell id="0" />
        <mxCell id="1" parent="0" />
        <mxCell id="04NM6lnkHxrhFWZUbT2F-1" value="" style="edgeStyle=orthogonalEdgeStyle;rounded=0;orthogonalLoop=1;jettySize=auto;html=1;" edge="1" parent="1" source="04NM6lnkHxrhFWZUbT2F-2" target="04NM6lnkHxrhFWZUbT2F-4">
          <mxGeometry relative="1" as="geometry" />
        </mxCell>
        <mxCell id="04NM6lnkHxrhFWZUbT2F-2" value="Начало" style="ellipse;whiteSpace=wrap;html=1;" vertex="1" parent="1">
          <mxGeometry x="340" y="40" width="120" height="40" as="geometry" />
        </mxCell>
        <mxCell id="04NM6lnkHxrhFWZUbT2F-3" value="" style="edgeStyle=orthogonalEdgeStyle;rounded=0;orthogonalLoop=1;jettySize=auto;html=1;" edge="1" parent="1" source="04NM6lnkHxrhFWZUbT2F-4" target="04NM6lnkHxrhFWZUbT2F-8">
          <mxGeometry relative="1" as="geometry" />
        </mxCell>
        <mxCell id="04NM6lnkHxrhFWZUbT2F-4" value="int main()" style="shape=process;whiteSpace=wrap;html=1;backgroundOutline=1;" vertex="1" parent="1">
          <mxGeometry x="340" y="120" width="120" height="40" as="geometry" />
        </mxCell>
        <mxCell id="04NM6lnkHxrhFWZUbT2F-5" value="" style="endArrow=none;dashed=1;html=1;rounded=0;" edge="1" parent="1" target="04NM6lnkHxrhFWZUbT2F-6">
          <mxGeometry width="50" height="50" relative="1" as="geometry">
            <mxPoint x="400" y="100" as="sourcePoint" />
            <mxPoint x="560" y="100" as="targetPoint" />
          </mxGeometry>
        </mxCell>
        <mxCell id="04NM6lnkHxrhFWZUbT2F-6" value="&lt;div&gt;#include &amp;lt;iostream&amp;gt;&lt;/div&gt;&lt;div&gt;using namespace std;&lt;/div&gt;&lt;div&gt;&lt;br&gt;&lt;/div&gt;&lt;div&gt;void show(int* arr, int n);&lt;/div&gt;&lt;div&gt;void merge_sort(int* arr, int start, int end);&lt;/div&gt;&lt;div&gt;void merge(int* arr, int start, int end, int mid);&lt;/div&gt;&lt;div&gt;&lt;br&gt;&lt;/div&gt;&lt;div&gt;const int n = 10;&lt;/div&gt;" style="strokeWidth=2;html=1;shape=mxgraph.flowchart.annotation_1;align=left;pointerEvents=1;" vertex="1" parent="1">
          <mxGeometry x="540" y="40" width="50" height="120" as="geometry" />
        </mxCell>
        <mxCell id="04NM6lnkHxrhFWZUbT2F-7" value="" style="edgeStyle=orthogonalEdgeStyle;rounded=0;orthogonalLoop=1;jettySize=auto;html=1;" edge="1" parent="1" source="04NM6lnkHxrhFWZUbT2F-8" target="04NM6lnkHxrhFWZUbT2F-11">
          <mxGeometry relative="1" as="geometry" />
        </mxCell>
        <mxCell id="04NM6lnkHxrhFWZUbT2F-8" value="srand(time(nullptr));" style="whiteSpace=wrap;html=1;" vertex="1" parent="1">
          <mxGeometry x="340" y="200" width="120" height="40" as="geometry" />
        </mxCell>
        <mxCell id="04NM6lnkHxrhFWZUbT2F-9" value="{" style="text;html=1;align=center;verticalAlign=middle;resizable=0;points=[];autosize=1;strokeColor=none;fillColor=none;" vertex="1" parent="1">
          <mxGeometry x="370" y="160" width="30" height="30" as="geometry" />
        </mxCell>
        <mxCell id="04NM6lnkHxrhFWZUbT2F-10" value="" style="edgeStyle=orthogonalEdgeStyle;rounded=0;orthogonalLoop=1;jettySize=auto;html=1;" edge="1" parent="1" source="04NM6lnkHxrhFWZUbT2F-11" target="04NM6lnkHxrhFWZUbT2F-14">
          <mxGeometry relative="1" as="geometry" />
        </mxCell>
        <mxCell id="04NM6lnkHxrhFWZUbT2F-11" value="int arr[n];" style="whiteSpace=wrap;html=1;" vertex="1" parent="1">
          <mxGeometry x="340" y="260" width="120" height="40" as="geometry" />
        </mxCell>
        <mxCell id="04NM6lnkHxrhFWZUbT2F-12" value="" style="edgeStyle=orthogonalEdgeStyle;rounded=0;orthogonalLoop=1;jettySize=auto;html=1;" edge="1" parent="1" source="04NM6lnkHxrhFWZUbT2F-14" target="04NM6lnkHxrhFWZUbT2F-16">
          <mxGeometry relative="1" as="geometry" />
        </mxCell>
        <mxCell id="04NM6lnkHxrhFWZUbT2F-13" style="edgeStyle=orthogonalEdgeStyle;rounded=0;orthogonalLoop=1;jettySize=auto;html=1;entryX=0.5;entryY=0;entryDx=0;entryDy=0;" edge="1" parent="1" source="04NM6lnkHxrhFWZUbT2F-14" target="04NM6lnkHxrhFWZUbT2F-20">
          <mxGeometry relative="1" as="geometry">
            <mxPoint x="400" y="500" as="targetPoint" />
            <Array as="points">
              <mxPoint x="500" y="340" />
              <mxPoint x="500" y="480" />
              <mxPoint x="400" y="480" />
            </Array>
          </mxGeometry>
        </mxCell>
        <mxCell id="04NM6lnkHxrhFWZUbT2F-14" value="for (int i = 0; i &amp;lt; n; i++)" style="shape=hexagon;perimeter=hexagonPerimeter2;whiteSpace=wrap;html=1;fixedSize=1;" vertex="1" parent="1">
          <mxGeometry x="330" y="320" width="140" height="40" as="geometry" />
        </mxCell>
        <mxCell id="04NM6lnkHxrhFWZUbT2F-15" style="edgeStyle=orthogonalEdgeStyle;rounded=0;orthogonalLoop=1;jettySize=auto;html=1;entryX=0;entryY=0.5;entryDx=0;entryDy=0;" edge="1" parent="1" source="04NM6lnkHxrhFWZUbT2F-16" target="04NM6lnkHxrhFWZUbT2F-14">
          <mxGeometry relative="1" as="geometry">
            <Array as="points">
              <mxPoint x="400" y="460" />
              <mxPoint x="310" y="460" />
              <mxPoint x="310" y="340" />
            </Array>
          </mxGeometry>
        </mxCell>
        <mxCell id="04NM6lnkHxrhFWZUbT2F-16" value="arr[i] = rand() % 100 + 1;" style="whiteSpace=wrap;html=1;" vertex="1" parent="1">
          <mxGeometry x="330" y="400" width="140" height="40" as="geometry" />
        </mxCell>
        <mxCell id="04NM6lnkHxrhFWZUbT2F-17" value="1" style="text;html=1;align=center;verticalAlign=middle;resizable=0;points=[];autosize=1;strokeColor=none;fillColor=none;" vertex="1" parent="1">
          <mxGeometry x="400" y="370" width="30" height="30" as="geometry" />
        </mxCell>
        <mxCell id="04NM6lnkHxrhFWZUbT2F-18" value="0" style="text;html=1;align=center;verticalAlign=middle;resizable=0;points=[];autosize=1;strokeColor=none;fillColor=none;" vertex="1" parent="1">
          <mxGeometry x="480" y="310" width="30" height="30" as="geometry" />
        </mxCell>
        <mxCell id="04NM6lnkHxrhFWZUbT2F-19" value="" style="edgeStyle=orthogonalEdgeStyle;rounded=0;orthogonalLoop=1;jettySize=auto;html=1;" edge="1" parent="1" source="04NM6lnkHxrhFWZUbT2F-20" target="04NM6lnkHxrhFWZUbT2F-22">
          <mxGeometry relative="1" as="geometry" />
        </mxCell>
        <mxCell id="04NM6lnkHxrhFWZUbT2F-20" value="show(arr, n);" style="rounded=0;whiteSpace=wrap;html=1;" vertex="1" parent="1">
          <mxGeometry x="340" y="500" width="120" height="40" as="geometry" />
        </mxCell>
        <mxCell id="04NM6lnkHxrhFWZUbT2F-21" value="" style="edgeStyle=orthogonalEdgeStyle;rounded=0;orthogonalLoop=1;jettySize=auto;html=1;" edge="1" parent="1" source="04NM6lnkHxrhFWZUbT2F-22" target="04NM6lnkHxrhFWZUbT2F-24">
          <mxGeometry relative="1" as="geometry" />
        </mxCell>
        <mxCell id="04NM6lnkHxrhFWZUbT2F-22" value="merge_sort(arr, 0, n - 1);" style="rounded=0;whiteSpace=wrap;html=1;" vertex="1" parent="1">
          <mxGeometry x="330" y="560" width="140" height="40" as="geometry" />
        </mxCell>
        <mxCell id="04NM6lnkHxrhFWZUbT2F-23" style="edgeStyle=orthogonalEdgeStyle;rounded=0;orthogonalLoop=1;jettySize=auto;html=1;entryX=0.5;entryY=0;entryDx=0;entryDy=0;" edge="1" parent="1" source="04NM6lnkHxrhFWZUbT2F-24" target="04NM6lnkHxrhFWZUbT2F-25">
          <mxGeometry relative="1" as="geometry">
            <mxPoint x="400" y="680" as="targetPoint" />
          </mxGeometry>
        </mxCell>
        <mxCell id="04NM6lnkHxrhFWZUbT2F-24" value="show(arr, n);" style="rounded=0;whiteSpace=wrap;html=1;" vertex="1" parent="1">
          <mxGeometry x="330" y="620" width="140" height="40" as="geometry" />
        </mxCell>
        <mxCell id="04NM6lnkHxrhFWZUbT2F-25" value="return 0;" style="ellipse;whiteSpace=wrap;html=1;" vertex="1" parent="1">
          <mxGeometry x="340" y="680" width="120" height="40" as="geometry" />
        </mxCell>
        <mxCell id="04NM6lnkHxrhFWZUbT2F-26" value="}" style="text;html=1;align=center;verticalAlign=middle;resizable=0;points=[];autosize=1;strokeColor=none;fillColor=none;" vertex="1" parent="1">
          <mxGeometry x="400" y="720" width="30" height="30" as="geometry" />
        </mxCell>
      </root>
    </mxGraphModel>
  </diagram>
  <diagram id="jWQMVL7LV0wtnsZw7JHM" name="show">
    <mxGraphModel dx="1290" dy="717" grid="1" gridSize="10" guides="1" tooltips="1" connect="1" arrows="1" fold="1" page="1" pageScale="1" pageWidth="827" pageHeight="1169" math="0" shadow="0">
      <root>
        <mxCell id="0" />
        <mxCell id="1" parent="0" />
        <mxCell id="QiQzo3EebIzRi4TxgKpJ-1" value="" style="edgeStyle=orthogonalEdgeStyle;rounded=0;orthogonalLoop=1;jettySize=auto;html=1;" edge="1" parent="1" source="QiQzo3EebIzRi4TxgKpJ-2" target="QiQzo3EebIzRi4TxgKpJ-4">
          <mxGeometry relative="1" as="geometry" />
        </mxCell>
        <mxCell id="QiQzo3EebIzRi4TxgKpJ-2" value="void show(int* arr, int n)" style="shape=process;whiteSpace=wrap;html=1;backgroundOutline=1;size=0.047619047619047616;" vertex="1" parent="1">
          <mxGeometry x="320" y="40" width="160" height="40" as="geometry" />
        </mxCell>
        <mxCell id="QiQzo3EebIzRi4TxgKpJ-3" value="" style="edgeStyle=orthogonalEdgeStyle;rounded=0;orthogonalLoop=1;jettySize=auto;html=1;" edge="1" parent="1" source="QiQzo3EebIzRi4TxgKpJ-4" target="QiQzo3EebIzRi4TxgKpJ-8">
          <mxGeometry relative="1" as="geometry" />
        </mxCell>
        <mxCell id="QiQzo3EebIzRi4TxgKpJ-4" value="cout &amp;lt;&amp;lt; &#39;{&#39;;" style="shape=parallelogram;perimeter=parallelogramPerimeter;whiteSpace=wrap;html=1;fixedSize=1;" vertex="1" parent="1">
          <mxGeometry x="340" y="120" width="120" height="40" as="geometry" />
        </mxCell>
        <mxCell id="QiQzo3EebIzRi4TxgKpJ-5" value="{" style="text;html=1;align=center;verticalAlign=middle;resizable=0;points=[];autosize=1;strokeColor=none;fillColor=none;" vertex="1" parent="1">
          <mxGeometry x="370" y="80" width="30" height="30" as="geometry" />
        </mxCell>
        <mxCell id="QiQzo3EebIzRi4TxgKpJ-6" value="" style="edgeStyle=orthogonalEdgeStyle;rounded=0;orthogonalLoop=1;jettySize=auto;html=1;" edge="1" parent="1" source="QiQzo3EebIzRi4TxgKpJ-8" target="QiQzo3EebIzRi4TxgKpJ-10">
          <mxGeometry relative="1" as="geometry" />
        </mxCell>
        <mxCell id="QiQzo3EebIzRi4TxgKpJ-7" value="" style="edgeStyle=orthogonalEdgeStyle;rounded=0;orthogonalLoop=1;jettySize=auto;html=1;" edge="1" parent="1" source="QiQzo3EebIzRi4TxgKpJ-8" target="QiQzo3EebIzRi4TxgKpJ-13">
          <mxGeometry relative="1" as="geometry" />
        </mxCell>
        <mxCell id="QiQzo3EebIzRi4TxgKpJ-8" value="for (int i = 0; i &amp;lt; n; i++)" style="shape=hexagon;perimeter=hexagonPerimeter2;whiteSpace=wrap;html=1;fixedSize=1;" vertex="1" parent="1">
          <mxGeometry x="325" y="180" width="150" height="40" as="geometry" />
        </mxCell>
        <mxCell id="QiQzo3EebIzRi4TxgKpJ-9" style="edgeStyle=orthogonalEdgeStyle;rounded=0;orthogonalLoop=1;jettySize=auto;html=1;entryX=0;entryY=0.5;entryDx=0;entryDy=0;" edge="1" parent="1" source="QiQzo3EebIzRi4TxgKpJ-10" target="QiQzo3EebIzRi4TxgKpJ-8">
          <mxGeometry relative="1" as="geometry">
            <Array as="points">
              <mxPoint x="400" y="320" />
              <mxPoint x="255" y="320" />
              <mxPoint x="255" y="200" />
            </Array>
          </mxGeometry>
        </mxCell>
        <mxCell id="QiQzo3EebIzRi4TxgKpJ-10" value="cout &amp;lt;&amp;lt; arr[i] &amp;lt;&amp;lt; ((i == n - 1) ? &quot;}\n&quot; : &quot;, &quot;);" style="shape=parallelogram;perimeter=parallelogramPerimeter;whiteSpace=wrap;html=1;fixedSize=1;" vertex="1" parent="1">
          <mxGeometry x="275" y="260" width="250" height="40" as="geometry" />
        </mxCell>
        <mxCell id="QiQzo3EebIzRi4TxgKpJ-11" value="1" style="text;html=1;align=center;verticalAlign=middle;resizable=0;points=[];autosize=1;strokeColor=none;fillColor=none;" vertex="1" parent="1">
          <mxGeometry x="399" y="230" width="30" height="30" as="geometry" />
        </mxCell>
        <mxCell id="QiQzo3EebIzRi4TxgKpJ-12" style="edgeStyle=orthogonalEdgeStyle;rounded=0;orthogonalLoop=1;jettySize=auto;html=1;entryX=0.5;entryY=0;entryDx=0;entryDy=0;" edge="1" parent="1" source="QiQzo3EebIzRi4TxgKpJ-13" target="QiQzo3EebIzRi4TxgKpJ-15">
          <mxGeometry relative="1" as="geometry" />
        </mxCell>
        <mxCell id="QiQzo3EebIzRi4TxgKpJ-13" value="cout &amp;lt;&amp;lt; endl;" style="shape=parallelogram;perimeter=parallelogramPerimeter;whiteSpace=wrap;html=1;fixedSize=1;" vertex="1" parent="1">
          <mxGeometry x="580" y="260" width="120" height="40" as="geometry" />
        </mxCell>
        <mxCell id="QiQzo3EebIzRi4TxgKpJ-14" value="0" style="text;html=1;align=center;verticalAlign=middle;resizable=0;points=[];autosize=1;strokeColor=none;fillColor=none;" vertex="1" parent="1">
          <mxGeometry x="610" y="168" width="30" height="30" as="geometry" />
        </mxCell>
        <mxCell id="QiQzo3EebIzRi4TxgKpJ-15" value="return;" style="ellipse;whiteSpace=wrap;html=1;" vertex="1" parent="1">
          <mxGeometry x="580" y="320" width="120" height="40" as="geometry" />
        </mxCell>
        <mxCell id="QiQzo3EebIzRi4TxgKpJ-16" value="}" style="text;html=1;align=center;verticalAlign=middle;resizable=0;points=[];autosize=1;strokeColor=none;fillColor=none;" vertex="1" parent="1">
          <mxGeometry x="640" y="360" width="30" height="30" as="geometry" />
        </mxCell>
      </root>
    </mxGraphModel>
  </diagram>
  <diagram id="SOQSSt9yNcXis4ABoz65" name="merge">
    <mxGraphModel dx="2150" dy="1195" grid="1" gridSize="10" guides="1" tooltips="1" connect="1" arrows="1" fold="1" page="1" pageScale="1" pageWidth="827" pageHeight="1169" math="0" shadow="0">
      <root>
        <mxCell id="0" />
        <mxCell id="1" parent="0" />
        <mxCell id="GhJUL1ukpJeqCDDRnwHy-4" value="" style="edgeStyle=orthogonalEdgeStyle;rounded=0;orthogonalLoop=1;jettySize=auto;html=1;" edge="1" parent="1" source="GhJUL1ukpJeqCDDRnwHy-2" target="GhJUL1ukpJeqCDDRnwHy-3">
          <mxGeometry relative="1" as="geometry" />
        </mxCell>
        <mxCell id="GhJUL1ukpJeqCDDRnwHy-2" value="void merge(int* arr, int start, int end, int mid)" style="shape=process;whiteSpace=wrap;html=1;backgroundOutline=1;size=0.04;" vertex="1" parent="1">
          <mxGeometry x="270" y="80" width="260" height="40" as="geometry" />
        </mxCell>
        <mxCell id="GhJUL1ukpJeqCDDRnwHy-7" value="" style="edgeStyle=orthogonalEdgeStyle;rounded=0;orthogonalLoop=1;jettySize=auto;html=1;" edge="1" parent="1" source="GhJUL1ukpJeqCDDRnwHy-3" target="GhJUL1ukpJeqCDDRnwHy-6">
          <mxGeometry relative="1" as="geometry" />
        </mxCell>
        <mxCell id="GhJUL1ukpJeqCDDRnwHy-3" value="int left = start;" style="whiteSpace=wrap;html=1;" vertex="1" parent="1">
          <mxGeometry x="340" y="160" width="120" height="40" as="geometry" />
        </mxCell>
        <mxCell id="GhJUL1ukpJeqCDDRnwHy-5" value="{" style="text;html=1;align=center;verticalAlign=middle;resizable=0;points=[];autosize=1;strokeColor=none;fillColor=none;" vertex="1" parent="1">
          <mxGeometry x="370" y="120" width="30" height="30" as="geometry" />
        </mxCell>
        <mxCell id="GhJUL1ukpJeqCDDRnwHy-9" value="" style="edgeStyle=orthogonalEdgeStyle;rounded=0;orthogonalLoop=1;jettySize=auto;html=1;" edge="1" parent="1" source="GhJUL1ukpJeqCDDRnwHy-6" target="GhJUL1ukpJeqCDDRnwHy-8">
          <mxGeometry relative="1" as="geometry" />
        </mxCell>
        <mxCell id="GhJUL1ukpJeqCDDRnwHy-6" value="int right = mid + 1;" style="whiteSpace=wrap;html=1;" vertex="1" parent="1">
          <mxGeometry x="340" y="220" width="120" height="40" as="geometry" />
        </mxCell>
        <mxCell id="GhJUL1ukpJeqCDDRnwHy-11" value="" style="edgeStyle=orthogonalEdgeStyle;rounded=0;orthogonalLoop=1;jettySize=auto;html=1;" edge="1" parent="1" source="GhJUL1ukpJeqCDDRnwHy-8" target="GhJUL1ukpJeqCDDRnwHy-10">
          <mxGeometry relative="1" as="geometry" />
        </mxCell>
        <mxCell id="GhJUL1ukpJeqCDDRnwHy-8" value="int len = end - start + 1;" style="whiteSpace=wrap;html=1;" vertex="1" parent="1">
          <mxGeometry x="335" y="280" width="130" height="40" as="geometry" />
        </mxCell>
        <mxCell id="GhJUL1ukpJeqCDDRnwHy-13" value="" style="edgeStyle=orthogonalEdgeStyle;rounded=0;orthogonalLoop=1;jettySize=auto;html=1;" edge="1" parent="1" source="GhJUL1ukpJeqCDDRnwHy-10" target="GhJUL1ukpJeqCDDRnwHy-12">
          <mxGeometry relative="1" as="geometry" />
        </mxCell>
        <mxCell id="GhJUL1ukpJeqCDDRnwHy-10" value="int* merge_arr = new int[len];" style="whiteSpace=wrap;html=1;" vertex="1" parent="1">
          <mxGeometry x="312.5" y="340" width="175" height="40" as="geometry" />
        </mxCell>
        <mxCell id="GhJUL1ukpJeqCDDRnwHy-15" value="" style="edgeStyle=orthogonalEdgeStyle;rounded=0;orthogonalLoop=1;jettySize=auto;html=1;" edge="1" parent="1" source="GhJUL1ukpJeqCDDRnwHy-12" target="GhJUL1ukpJeqCDDRnwHy-14">
          <mxGeometry relative="1" as="geometry" />
        </mxCell>
        <mxCell id="GhJUL1ukpJeqCDDRnwHy-26" style="edgeStyle=orthogonalEdgeStyle;rounded=0;orthogonalLoop=1;jettySize=auto;html=1;entryX=0.5;entryY=0;entryDx=0;entryDy=0;" edge="1" parent="1" source="GhJUL1ukpJeqCDDRnwHy-12" target="GhJUL1ukpJeqCDDRnwHy-28">
          <mxGeometry relative="1" as="geometry">
            <mxPoint x="400" y="680" as="targetPoint" />
            <Array as="points">
              <mxPoint x="720" y="420" />
              <mxPoint x="720" y="660" />
              <mxPoint x="400" y="660" />
              <mxPoint x="400" y="680" />
            </Array>
          </mxGeometry>
        </mxCell>
        <mxCell id="GhJUL1ukpJeqCDDRnwHy-12" value="for (int i = 0; i &amp;lt; len; i++)" style="shape=hexagon;perimeter=hexagonPerimeter2;whiteSpace=wrap;html=1;fixedSize=1;" vertex="1" parent="1">
          <mxGeometry x="325" y="400" width="150" height="40" as="geometry" />
        </mxCell>
        <mxCell id="GhJUL1ukpJeqCDDRnwHy-18" value="" style="edgeStyle=orthogonalEdgeStyle;rounded=0;orthogonalLoop=1;jettySize=auto;html=1;entryX=0.5;entryY=0;entryDx=0;entryDy=0;exitX=0;exitY=0.5;exitDx=0;exitDy=0;" edge="1" parent="1" source="GhJUL1ukpJeqCDDRnwHy-14" target="GhJUL1ukpJeqCDDRnwHy-17">
          <mxGeometry relative="1" as="geometry" />
        </mxCell>
        <mxCell id="GhJUL1ukpJeqCDDRnwHy-20" value="" style="edgeStyle=orthogonalEdgeStyle;rounded=0;orthogonalLoop=1;jettySize=auto;html=1;exitX=1;exitY=0.5;exitDx=0;exitDy=0;" edge="1" parent="1" source="GhJUL1ukpJeqCDDRnwHy-14" target="GhJUL1ukpJeqCDDRnwHy-19">
          <mxGeometry relative="1" as="geometry" />
        </mxCell>
        <mxCell id="GhJUL1ukpJeqCDDRnwHy-14" value="if (left &amp;lt;= mid &amp;amp;&amp;amp; (right &amp;gt; end || arr[left] &amp;lt; arr[right]))" style="rhombus;whiteSpace=wrap;html=1;" vertex="1" parent="1">
          <mxGeometry x="240" y="480" width="320" height="80" as="geometry" />
        </mxCell>
        <mxCell id="GhJUL1ukpJeqCDDRnwHy-16" value="1" style="text;html=1;align=center;verticalAlign=middle;resizable=0;points=[];autosize=1;strokeColor=none;fillColor=none;" vertex="1" parent="1">
          <mxGeometry x="400" y="450" width="30" height="30" as="geometry" />
        </mxCell>
        <mxCell id="GhJUL1ukpJeqCDDRnwHy-23" style="edgeStyle=orthogonalEdgeStyle;rounded=0;orthogonalLoop=1;jettySize=auto;html=1;exitX=0.5;exitY=1;exitDx=0;exitDy=0;" edge="1" parent="1" source="GhJUL1ukpJeqCDDRnwHy-17">
          <mxGeometry relative="1" as="geometry">
            <mxPoint x="400" y="620" as="targetPoint" />
            <Array as="points">
              <mxPoint x="181" y="620" />
            </Array>
          </mxGeometry>
        </mxCell>
        <mxCell id="GhJUL1ukpJeqCDDRnwHy-17" value="merge_arr[i] = arr[left++];" style="whiteSpace=wrap;html=1;" vertex="1" parent="1">
          <mxGeometry x="102.68" y="560" width="157.32" height="40" as="geometry" />
        </mxCell>
        <mxCell id="GhJUL1ukpJeqCDDRnwHy-24" style="edgeStyle=orthogonalEdgeStyle;rounded=0;orthogonalLoop=1;jettySize=auto;html=1;" edge="1" parent="1" source="GhJUL1ukpJeqCDDRnwHy-19">
          <mxGeometry relative="1" as="geometry">
            <mxPoint x="400" y="620" as="targetPoint" />
            <Array as="points">
              <mxPoint x="620" y="620" />
            </Array>
          </mxGeometry>
        </mxCell>
        <mxCell id="GhJUL1ukpJeqCDDRnwHy-19" value="merge_arr[i] = arr[right++];" style="whiteSpace=wrap;html=1;" vertex="1" parent="1">
          <mxGeometry x="540" y="555" width="160" height="45" as="geometry" />
        </mxCell>
        <mxCell id="GhJUL1ukpJeqCDDRnwHy-21" value="1" style="text;html=1;align=center;verticalAlign=middle;resizable=0;points=[];autosize=1;strokeColor=none;fillColor=none;" vertex="1" parent="1">
          <mxGeometry x="180" y="490" width="30" height="30" as="geometry" />
        </mxCell>
        <mxCell id="GhJUL1ukpJeqCDDRnwHy-22" value="0" style="text;html=1;align=center;verticalAlign=middle;resizable=0;points=[];autosize=1;strokeColor=none;fillColor=none;" vertex="1" parent="1">
          <mxGeometry x="595" y="490" width="30" height="30" as="geometry" />
        </mxCell>
        <mxCell id="GhJUL1ukpJeqCDDRnwHy-25" value="" style="endArrow=classic;html=1;rounded=0;entryX=0;entryY=0.5;entryDx=0;entryDy=0;" edge="1" parent="1" target="GhJUL1ukpJeqCDDRnwHy-12">
          <mxGeometry width="50" height="50" relative="1" as="geometry">
            <mxPoint x="400" y="620" as="sourcePoint" />
            <mxPoint x="230" y="410" as="targetPoint" />
            <Array as="points">
              <mxPoint x="400" y="640" />
              <mxPoint x="80" y="640" />
              <mxPoint x="80" y="420" />
            </Array>
          </mxGeometry>
        </mxCell>
        <mxCell id="GhJUL1ukpJeqCDDRnwHy-27" value="0" style="text;html=1;align=center;verticalAlign=middle;resizable=0;points=[];autosize=1;strokeColor=none;fillColor=none;" vertex="1" parent="1">
          <mxGeometry x="690" y="390" width="30" height="30" as="geometry" />
        </mxCell>
        <mxCell id="GhJUL1ukpJeqCDDRnwHy-30" value="" style="edgeStyle=orthogonalEdgeStyle;rounded=0;orthogonalLoop=1;jettySize=auto;html=1;" edge="1" parent="1" source="GhJUL1ukpJeqCDDRnwHy-28" target="GhJUL1ukpJeqCDDRnwHy-29">
          <mxGeometry relative="1" as="geometry" />
        </mxCell>
        <mxCell id="GhJUL1ukpJeqCDDRnwHy-28" value="int ind = start;" style="rounded=0;whiteSpace=wrap;html=1;" vertex="1" parent="1">
          <mxGeometry x="340" y="680" width="120" height="40" as="geometry" />
        </mxCell>
        <mxCell id="GhJUL1ukpJeqCDDRnwHy-32" value="" style="edgeStyle=orthogonalEdgeStyle;rounded=0;orthogonalLoop=1;jettySize=auto;html=1;" edge="1" parent="1" source="GhJUL1ukpJeqCDDRnwHy-29" target="GhJUL1ukpJeqCDDRnwHy-31">
          <mxGeometry relative="1" as="geometry" />
        </mxCell>
        <mxCell id="GhJUL1ukpJeqCDDRnwHy-35" style="edgeStyle=orthogonalEdgeStyle;rounded=0;orthogonalLoop=1;jettySize=auto;html=1;" edge="1" parent="1" source="GhJUL1ukpJeqCDDRnwHy-29" target="GhJUL1ukpJeqCDDRnwHy-37">
          <mxGeometry relative="1" as="geometry">
            <mxPoint x="400" y="920" as="targetPoint" />
            <Array as="points">
              <mxPoint x="510" y="760" />
              <mxPoint x="510" y="900" />
              <mxPoint x="400" y="900" />
            </Array>
          </mxGeometry>
        </mxCell>
        <mxCell id="GhJUL1ukpJeqCDDRnwHy-29" value="for (int i = 0; i &amp;lt; len; i++)" style="shape=hexagon;perimeter=hexagonPerimeter2;whiteSpace=wrap;html=1;fixedSize=1;rounded=0;" vertex="1" parent="1">
          <mxGeometry x="325" y="740" width="150" height="40" as="geometry" />
        </mxCell>
        <mxCell id="GhJUL1ukpJeqCDDRnwHy-34" style="edgeStyle=orthogonalEdgeStyle;rounded=0;orthogonalLoop=1;jettySize=auto;html=1;entryX=0;entryY=0.5;entryDx=0;entryDy=0;" edge="1" parent="1" source="GhJUL1ukpJeqCDDRnwHy-31" target="GhJUL1ukpJeqCDDRnwHy-29">
          <mxGeometry relative="1" as="geometry">
            <Array as="points">
              <mxPoint x="400" y="880" />
              <mxPoint x="305" y="880" />
              <mxPoint x="305" y="760" />
            </Array>
          </mxGeometry>
        </mxCell>
        <mxCell id="GhJUL1ukpJeqCDDRnwHy-31" value="arr[ind++] = merge_arr[i];" style="whiteSpace=wrap;html=1;rounded=0;" vertex="1" parent="1">
          <mxGeometry x="330" y="820" width="140" height="40" as="geometry" />
        </mxCell>
        <mxCell id="GhJUL1ukpJeqCDDRnwHy-33" value="1" style="text;html=1;align=center;verticalAlign=middle;resizable=0;points=[];autosize=1;strokeColor=none;fillColor=none;" vertex="1" parent="1">
          <mxGeometry x="400" y="790" width="30" height="30" as="geometry" />
        </mxCell>
        <mxCell id="GhJUL1ukpJeqCDDRnwHy-36" value="0" style="text;html=1;align=center;verticalAlign=middle;resizable=0;points=[];autosize=1;strokeColor=none;fillColor=none;" vertex="1" parent="1">
          <mxGeometry x="487.5" y="730" width="30" height="30" as="geometry" />
        </mxCell>
        <mxCell id="GhJUL1ukpJeqCDDRnwHy-39" style="edgeStyle=orthogonalEdgeStyle;rounded=0;orthogonalLoop=1;jettySize=auto;html=1;entryX=0.5;entryY=0;entryDx=0;entryDy=0;" edge="1" parent="1" source="GhJUL1ukpJeqCDDRnwHy-37" target="GhJUL1ukpJeqCDDRnwHy-38">
          <mxGeometry relative="1" as="geometry" />
        </mxCell>
        <mxCell id="GhJUL1ukpJeqCDDRnwHy-37" value="delete[] merge_arr;" style="rounded=0;whiteSpace=wrap;html=1;" vertex="1" parent="1">
          <mxGeometry x="340" y="920" width="120" height="40" as="geometry" />
        </mxCell>
        <mxCell id="GhJUL1ukpJeqCDDRnwHy-38" value="return;" style="ellipse;whiteSpace=wrap;html=1;" vertex="1" parent="1">
          <mxGeometry x="340" y="980" width="120" height="40" as="geometry" />
        </mxCell>
        <mxCell id="GhJUL1ukpJeqCDDRnwHy-41" value="}" style="text;html=1;align=center;verticalAlign=middle;resizable=0;points=[];autosize=1;strokeColor=none;fillColor=none;" vertex="1" parent="1">
          <mxGeometry x="400" y="1020" width="30" height="30" as="geometry" />
        </mxCell>
      </root>
    </mxGraphModel>
  </diagram>
  <diagram id="n2FssSvcznQbiYF3c6GH" name="merge_sort">
    <mxGraphModel dx="956" dy="531" grid="1" gridSize="10" guides="1" tooltips="1" connect="1" arrows="1" fold="1" page="1" pageScale="1" pageWidth="827" pageHeight="1169" math="0" shadow="0">
      <root>
        <mxCell id="0" />
        <mxCell id="1" parent="0" />
        <mxCell id="6qdQTKM2e8GancQJ4McY-4" value="" style="edgeStyle=orthogonalEdgeStyle;rounded=0;orthogonalLoop=1;jettySize=auto;html=1;" edge="1" parent="1" source="6qdQTKM2e8GancQJ4McY-2" target="6qdQTKM2e8GancQJ4McY-3">
          <mxGeometry relative="1" as="geometry" />
        </mxCell>
        <mxCell id="6qdQTKM2e8GancQJ4McY-2" value="void merge_sort(int* arr, int start, int end)" style="shape=process;whiteSpace=wrap;html=1;backgroundOutline=1;size=0.03571428571428571;" vertex="1" parent="1">
          <mxGeometry x="280" y="40" width="240" height="40" as="geometry" />
        </mxCell>
        <mxCell id="6qdQTKM2e8GancQJ4McY-6" style="edgeStyle=orthogonalEdgeStyle;rounded=0;orthogonalLoop=1;jettySize=auto;html=1;entryX=0.5;entryY=0;entryDx=0;entryDy=0;" edge="1" parent="1" source="6qdQTKM2e8GancQJ4McY-3" target="OzxyLUcGgoNtdT6nSHbe-1">
          <mxGeometry relative="1" as="geometry">
            <mxPoint x="280" y="160" as="targetPoint" />
            <Array as="points">
              <mxPoint x="280" y="140" />
            </Array>
          </mxGeometry>
        </mxCell>
        <mxCell id="OzxyLUcGgoNtdT6nSHbe-3" style="edgeStyle=orthogonalEdgeStyle;rounded=0;orthogonalLoop=1;jettySize=auto;html=1;" edge="1" parent="1" source="6qdQTKM2e8GancQJ4McY-3">
          <mxGeometry relative="1" as="geometry">
            <mxPoint x="400" y="220" as="targetPoint" />
            <Array as="points">
              <mxPoint x="500" y="140" />
              <mxPoint x="500" y="220" />
            </Array>
          </mxGeometry>
        </mxCell>
        <mxCell id="6qdQTKM2e8GancQJ4McY-3" value="if (start &amp;gt;= end)" style="rhombus;whiteSpace=wrap;html=1;" vertex="1" parent="1">
          <mxGeometry x="335" y="120" width="130" height="40" as="geometry" />
        </mxCell>
        <mxCell id="6qdQTKM2e8GancQJ4McY-5" value="{" style="text;html=1;align=center;verticalAlign=middle;resizable=0;points=[];autosize=1;strokeColor=none;fillColor=none;" vertex="1" parent="1">
          <mxGeometry x="375" y="80" width="30" height="30" as="geometry" />
        </mxCell>
        <mxCell id="OzxyLUcGgoNtdT6nSHbe-2" style="edgeStyle=orthogonalEdgeStyle;rounded=0;orthogonalLoop=1;jettySize=auto;html=1;" edge="1" parent="1" source="OzxyLUcGgoNtdT6nSHbe-1">
          <mxGeometry relative="1" as="geometry">
            <mxPoint x="400" y="220" as="targetPoint" />
            <Array as="points">
              <mxPoint x="280" y="220" />
            </Array>
          </mxGeometry>
        </mxCell>
        <mxCell id="OzxyLUcGgoNtdT6nSHbe-1" value="return;" style="ellipse;whiteSpace=wrap;html=1;" vertex="1" parent="1">
          <mxGeometry x="220" y="160" width="120" height="40" as="geometry" />
        </mxCell>
        <mxCell id="OzxyLUcGgoNtdT6nSHbe-4" value="1" style="text;html=1;align=center;verticalAlign=middle;resizable=0;points=[];autosize=1;strokeColor=none;fillColor=none;" vertex="1" parent="1">
          <mxGeometry x="280" y="110" width="30" height="30" as="geometry" />
        </mxCell>
        <mxCell id="OzxyLUcGgoNtdT6nSHbe-5" value="0" style="text;html=1;align=center;verticalAlign=middle;resizable=0;points=[];autosize=1;strokeColor=none;fillColor=none;" vertex="1" parent="1">
          <mxGeometry x="475" y="110" width="30" height="30" as="geometry" />
        </mxCell>
        <mxCell id="OzxyLUcGgoNtdT6nSHbe-6" value="" style="endArrow=classic;html=1;rounded=0;" edge="1" parent="1" target="OzxyLUcGgoNtdT6nSHbe-7">
          <mxGeometry width="50" height="50" relative="1" as="geometry">
            <mxPoint x="400" y="220" as="sourcePoint" />
            <mxPoint x="400" y="240" as="targetPoint" />
          </mxGeometry>
        </mxCell>
        <mxCell id="OzxyLUcGgoNtdT6nSHbe-9" value="" style="edgeStyle=orthogonalEdgeStyle;rounded=0;orthogonalLoop=1;jettySize=auto;html=1;" edge="1" parent="1" source="OzxyLUcGgoNtdT6nSHbe-7" target="OzxyLUcGgoNtdT6nSHbe-8">
          <mxGeometry relative="1" as="geometry" />
        </mxCell>
        <mxCell id="OzxyLUcGgoNtdT6nSHbe-7" value="int mid = (start + end) / 2;" style="rounded=0;whiteSpace=wrap;html=1;" vertex="1" parent="1">
          <mxGeometry x="330" y="240" width="140" height="40" as="geometry" />
        </mxCell>
        <mxCell id="OzxyLUcGgoNtdT6nSHbe-11" value="" style="edgeStyle=orthogonalEdgeStyle;rounded=0;orthogonalLoop=1;jettySize=auto;html=1;" edge="1" parent="1" source="OzxyLUcGgoNtdT6nSHbe-8" target="OzxyLUcGgoNtdT6nSHbe-10">
          <mxGeometry relative="1" as="geometry" />
        </mxCell>
        <mxCell id="OzxyLUcGgoNtdT6nSHbe-8" value="merge_sort(arr, start, mid);" style="rounded=0;whiteSpace=wrap;html=1;" vertex="1" parent="1">
          <mxGeometry x="315" y="300" width="170" height="40" as="geometry" />
        </mxCell>
        <mxCell id="OzxyLUcGgoNtdT6nSHbe-13" value="" style="edgeStyle=orthogonalEdgeStyle;rounded=0;orthogonalLoop=1;jettySize=auto;html=1;" edge="1" parent="1" source="OzxyLUcGgoNtdT6nSHbe-10" target="OzxyLUcGgoNtdT6nSHbe-12">
          <mxGeometry relative="1" as="geometry" />
        </mxCell>
        <mxCell id="OzxyLUcGgoNtdT6nSHbe-10" value="merge_sort(arr, mid + 1, end);" style="rounded=0;whiteSpace=wrap;html=1;" vertex="1" parent="1">
          <mxGeometry x="315" y="360" width="170" height="40" as="geometry" />
        </mxCell>
        <mxCell id="OzxyLUcGgoNtdT6nSHbe-15" style="edgeStyle=orthogonalEdgeStyle;rounded=0;orthogonalLoop=1;jettySize=auto;html=1;entryX=0.5;entryY=0;entryDx=0;entryDy=0;" edge="1" parent="1" source="OzxyLUcGgoNtdT6nSHbe-12" target="OzxyLUcGgoNtdT6nSHbe-14">
          <mxGeometry relative="1" as="geometry" />
        </mxCell>
        <mxCell id="OzxyLUcGgoNtdT6nSHbe-12" value="merge(arr, start, end, mid);" style="rounded=0;whiteSpace=wrap;html=1;" vertex="1" parent="1">
          <mxGeometry x="315" y="420" width="170" height="40" as="geometry" />
        </mxCell>
        <mxCell id="OzxyLUcGgoNtdT6nSHbe-14" value="return;" style="ellipse;whiteSpace=wrap;html=1;" vertex="1" parent="1">
          <mxGeometry x="340" y="480" width="120" height="40" as="geometry" />
        </mxCell>
        <mxCell id="OzxyLUcGgoNtdT6nSHbe-16" value="}" style="text;html=1;align=center;verticalAlign=middle;resizable=0;points=[];autosize=1;strokeColor=none;fillColor=none;" vertex="1" parent="1">
          <mxGeometry x="399" y="520" width="30" height="30" as="geometry" />
        </mxCell>
      </root>
    </mxGraphModel>
  </diagram>
</mxfile>
